# xmcd CD database file
#
# Track frame offsets:
#	150
#	5146
#	28416
#	50144
#	75529
#	107948
#	119866
#	134343
#	157805
#	163821
#
# Disc length: 2462 seconds
#
# Revision: 0
# Processed by: cddbd v1.5.2PL0 Copyright (c) Steve Scherf et al.
# Submitted via: CDex 1.51
#
DISCID=8e099c0a
DTITLE=Arms and Sleepers - Matador
DYEAR=2009
DGENRE=Jazz
TTITLE0=Orly
TTITLE1=Matador
TTITLE2=The Architekt
TTITLE3=Twentynine Palms
TTITLE4=Helvetica
TTITLE5=The International
TTITLE6=Simone
TTITLE7=Kino
TTITLE8=Words Are For Sleeping
TTITLE9=The Paramour
EXTD=YEAR: 2009
EXTT0=
EXTT1=
EXTT2=
EXTT3=
EXTT4=
EXTT5=
EXTT6=
EXTT7=
EXTT8=
EXTT9=
PLAYORDER=
